<?xml version="1.0" encoding="UTF-8" standalone="no"?>
<svg
   xmlns:dc="http://purl.org/dc/elements/1.1/"
   xmlns:cc="http://creativecommons.org/ns#"
   xmlns:rdf="http://www.w3.org/1999/02/22-rdf-syntax-ns#"
   xmlns:svg="http://www.w3.org/2000/svg"
   xmlns="http://www.w3.org/2000/svg"
   viewBox="0 0 793.7007874015749 1122.5196850393702"
   width="793.7007874015749"
   height="1122.5196850393702"
   version="1.1"
   id="svg164">
  <metadata
     id="metadata168">
    <rdf:RDF>
      <cc:Work
         rdf:about="">
        <dc:format>image/svg+xml</dc:format>
        <dc:type
           rdf:resource="http://purl.org/dc/dcmitype/StillImage" />
        <dc:title></dc:title>
      </cc:Work>
    </rdf:RDF>
  </metadata>
  <defs
     id="defs22">
    <marker
       id="DistanceX"
       orient="auto"
       refX="0.0"
       refY="0.0"
       style="overflow:visible">
      <path
         d="M 3,-3 L -3,3 M 0,-5 L  0,5"
         style="stroke:#000000; stroke-width:0.5"
         id="path10" />
    </marker>
    <pattern
       id="Hatch"
       patternUnits="userSpaceOnUse"
       width="8"
       height="8"
       x="0"
       y="0">
      <path
         d="M8 4 l-4,4"
         stroke="#000000"
         stroke-width="0.25"
         linecap="square"
         id="path13" />
      <path
         d="M6 2 l-4,4"
         stroke="#000000"
         stroke-width="0.25"
         linecap="square"
         id="path15" />
      <path
         d="M4 0 l-4,4"
         stroke="#000000"
         stroke-width="0.25"
         linecap="square"
         id="path17" />
    </pattern>
    <symbol
       id="*MODEL_SPACE" />
    <symbol
       id="*PAPER_SPACE" />
  </defs>
  <g
     id="g160">
    <g
       id="g238"
       transform="rotate(90,401.08346,362.09859)">
      <path
         d="m 571.16221,331.18677 a 31.82263,31.82263 0 0 1 0,61.82364 v 25.7811 a 18.89764,18.89764 0 0 1 -37.79528,0 V 305.40568 a 18.89764,18.89764 0 0 1 37.79528,0 z"
         style="fill:none;stroke:#000000"
         id="path24" />
      <path
         d="m 281.08346,371.50005 a 47.244094,47.244094 0 1 1 0,-18.80291 9.448818,9.448818 0 1 1 0,18.80291 z"
         style="fill:none;stroke:#000000"
         id="path26" />
      <path
         d="m 350.70617,396.11434 a 18.89764,18.89764 0 0 1 -37.79528,0 v -68.0315 a 18.89764,18.89764 0 0 1 37.79528,0 z"
         style="fill:none;stroke:#000000"
         id="path28" />
      <path
         d="m 382.18583,424.4608 a 9.44882,9.44882 0 0 1 -18.89764,0 v -34.01575 a 9.44882,9.44882 0 0 1 18.89764,0 z"
         style="fill:none;stroke:#000000"
         id="path30" />
      <path
         d="m 642.97323,517.42067 a 11.338583,11.338583 0 0 1 -9.86604,11.24256 75.968504,75.968504 0 0 0 -65.45909,65.45909 11.338583,11.338583 0 0 1 -11.24255,9.86604 h -46.47169 v 11.33858 l -11.52756,7.55905 h -13.22835 l -11.52756,-7.55905 v -11.33858 h -9.07086 v 11.33858 l -11.52756,7.55905 h -13.22835 l -11.52756,-7.55905 v -11.33858 h -54.42519 v 11.33858 l -11.52756,7.55905 h -13.22835 l -11.52756,-7.55905 v -11.33858 h -9.07086 v 11.33858 l -11.52756,7.55905 h -13.22835 l -11.52756,-7.55905 v -11.33858 h -46.47168 a 11.338583,11.338583 0 0 1 -11.24256,-9.86604 75.968504,75.968504 0 0 0 -65.45909,-65.45909 11.338583,11.338583 0 0 1 -9.86604,-11.24256 v -46.47168 h -11.33858 l -7.55906,-11.52756 v -13.22835 l 7.55906,-11.52756 h 11.33858 v -9.07086 h -11.33858 l -7.55906,-11.52756 v -13.22835 l 7.55906,-11.52756 h 11.33858 v -54.4252 h -11.33858 l -7.55906,-11.52755 v -13.22835 l 7.55906,-11.52756 h 11.33858 v -9.07087 h -11.33858 l -7.55906,-11.52756 v -13.22834 l 7.55906,-11.52756 h 11.33858 v -46.47169 a 11.338583,11.338583 0 0 1 9.86604,-11.24255 75.968504,75.968504 0 0 0 65.45909,-65.45909 11.338583,11.338583 0 0 1 11.24256,-9.86604 h 46.47168 v -11.33858 l 11.52756,-7.55906 h 13.22835 l 11.52756,7.55906 v 11.33858 h 9.07086 v -11.33858 l 11.52756,-7.55906 h 13.22835 l 11.52756,7.55906 v 11.33858 h 54.42519 v -11.33858 l 11.52756,-7.55906 h 13.22835 l 11.52756,7.55906 v 11.33858 h 9.07086 v -11.33858 l 11.52756,-7.55906 h 13.22835 l 11.52756,7.55906 v 11.33858 h 46.47169 a 11.338583,11.338583 0 0 1 11.24255,9.86604 75.968504,75.968504 0 0 0 65.45909,65.45909 11.338583,11.338583 0 0 1 9.86604,11.24255 v 46.47169 h 11.33858 l 7.55906,11.52756 v 13.22834 l -7.55906,11.52756 h -11.33858 v 9.07087 h 11.33858 l 7.55906,11.52756 v 13.22835 l -7.55906,11.52755 h -11.33858 v 54.4252 h 11.33858 l 7.55906,11.52756 v 13.22835 l -7.55906,11.52756 h -11.33858 v 9.07086 h 11.33858 l 7.55906,11.52756 v 13.22835 l -7.55906,11.52756 h -11.33858 z"
         style="fill:none;stroke:#000000"
         id="path32" />
      <path
         d="m 248.7685,165.56316 a 5.669291,5.669291 0 1 0 -11.33858,0 5.669291,5.669291 0 1 0 11.33858,0 z"
         style="fill:none;stroke:#000000"
         id="path34" />
      <path
         d="m 361.39843,558.63403 a 5.669295,5.669295 0 1 0 -11.33859,0 5.669295,5.669295 0 1 0 11.33859,0 z"
         style="fill:none;stroke:#000000"
         id="path36" />
      <path
         d="m 248.7685,558.63403 a 5.669291,5.669291 0 1 0 -11.33858,0 5.669291,5.669291 0 1 0 11.33858,0 z"
         style="fill:none;stroke:#000000"
         id="path38" />
      <path
         d="m 361.39843,142.88599 a 5.669295,5.669295 0 1 0 -11.33859,0 5.669295,5.669295 0 1 0 11.33859,0 z"
         style="fill:none;stroke:#000000"
         id="path40" />
      <path
         d="m 248.7685,142.88599 a 5.669291,5.669291 0 1 0 -11.33858,0 5.669291,5.669291 0 1 0 11.33858,0 z"
         style="fill:none;stroke:#000000"
         id="path42" />
      <path
         d="m 361.39843,581.31119 a 5.669295,5.669295 0 1 0 -11.33859,0 5.669295,5.669295 0 1 0 11.33859,0 z"
         style="fill:none;stroke:#000000"
         id="path44" />
      <path
         d="m 248.7685,581.31119 a 5.669291,5.669291 0 1 0 -11.33858,0 5.669291,5.669291 0 1 0 11.33858,0 z"
         style="fill:none;stroke:#000000"
         id="path46" />
      <path
         d="m 361.39843,165.56316 a 5.669295,5.669295 0 1 0 -11.33859,0 5.669295,5.669295 0 1 0 11.33859,0 z"
         style="fill:none;stroke:#000000"
         id="path48" />
      <path
         d="m 273.52441,267.6104 a 4.72441,4.72441 0 1 0 -9.44882,0 4.72441,4.72441 0 1 0 9.44882,0 z"
         style="fill:none;stroke:#000000"
         id="path50" />
      <path
         d="m 488.95748,244.93324 a 4.72441,4.72441 0 1 0 -9.44882,0 4.72441,4.72441 0 1 0 9.44882,0 z"
         style="fill:none;stroke:#000000"
         id="path52" />
      <path
         d="m 273.52441,456.58678 a 4.72441,4.72441 0 1 0 -9.44882,0 4.72441,4.72441 0 1 0 9.44882,0 z"
         style="fill:none;stroke:#000000"
         id="path54" />
      <path
         d="m 488.95748,479.26395 a 4.72441,4.72441 0 1 0 -9.44882,0 4.72441,4.72441 0 1 0 9.44882,0 z"
         style="fill:none;stroke:#000000"
         id="path56" />
      <path
         d="m 271.63465,430.13009 a 6.614175,6.614175 0 1 0 -13.22835,0 6.614175,6.614175 0 1 0 13.22835,0 z"
         style="fill:none;stroke:#000000"
         id="path58" />
      <path
         d="m 271.63465,294.0671 a 6.614175,6.614175 0 1 0 -13.22835,0 6.614175,6.614175 0 1 0 13.22835,0 z"
         style="fill:none;stroke:#000000"
         id="path60" />
      <path
         d="m 530.34331,566.28757 a 5.6692915,5.6692915 0 1 0 -11.33858,0 5.6692915,5.6692915 0 1 0 11.33858,0 z"
         style="fill:none;stroke:#000000"
         id="path62" />
      <path
         d="m 440.0126,392.24033 a 5.6692915,5.6692915 0 1 0 -11.33858,0 5.6692915,5.6692915 0 1 0 11.33858,0 z"
         style="fill:none;stroke:#000000"
         id="path64" />
      <path
         d="m 440.0126,566.28757 a 5.6692915,5.6692915 0 1 0 -11.33858,0 5.6692915,5.6692915 0 1 0 11.33858,0 z"
         style="fill:none;stroke:#000000"
         id="path66" />
      <path
         d="m 530.34331,392.24033 a 5.6692915,5.6692915 0 1 0 -11.33858,0 5.6692915,5.6692915 0 1 0 11.33858,0 z"
         style="fill:none;stroke:#000000"
         id="path68" />
      <path
         d="m 345.03687,431.73338 a 5.6692915,5.6692915 0 1 0 -11.33858,0 5.6692915,5.6692915 0 1 0 11.33858,0 z"
         style="fill:none;stroke:#000000"
         id="path70" />
      <path
         d="m 205.19435,291.89086 a 5.669291,5.669291 0 1 0 -11.33858,0 5.669291,5.669291 0 1 0 11.33858,0 z"
         style="fill:none;stroke:#000000"
         id="path72" />
      <path
         d="m 205.19435,431.73338 a 5.669291,5.669291 0 1 0 -11.33858,0 5.669291,5.669291 0 1 0 11.33858,0 z"
         style="fill:none;stroke:#000000"
         id="path74" />
      <path
         d="m 345.03687,291.89086 a 5.6692915,5.6692915 0 1 0 -11.33858,0 5.6692915,5.6692915 0 1 0 11.33858,0 z"
         style="fill:none;stroke:#000000"
         id="path76" />
      <path
         d="m 408.64252,295.95686 a 5.669291,5.669291 0 1 0 -11.33858,0 5.669291,5.669291 0 1 0 11.33858,0 z"
         style="fill:none;stroke:#000000"
         id="path78" />
      <path
         d="m 593.83937,295.95686 a 5.6692915,5.6692915 0 1 0 -11.33858,0 5.6692915,5.6692915 0 1 0 11.33858,0 z"
         style="fill:none;stroke:#000000"
         id="path80" />
      <path
         d="m 408.64252,515.16946 a 5.669291,5.669291 0 1 0 -11.33858,0 5.669291,5.669291 0 1 0 11.33858,0 z"
         style="fill:none;stroke:#000000"
         id="path82" />
      <path
         d="m 361.39843,603.98836 a 5.669295,5.669295 0 1 0 -11.33859,0 5.669295,5.669295 0 1 0 11.33859,0 z"
         style="fill:none;stroke:#000000"
         id="path84" />
      <path
         d="m 164.86299,316.74426 a 5.6692915,5.6692915 0 1 0 -11.33858,0 5.6692915,5.6692915 0 1 0 11.33858,0 z"
         style="fill:none;stroke:#000000"
         id="path86" />
      <path
         d="m 452.10709,120.20883 a 5.669295,5.669295 0 1 0 -11.33859,0 5.669295,5.669295 0 1 0 11.33859,0 z"
         style="fill:none;stroke:#000000"
         id="path88" />
      <path
         d="m 648.64252,452.80725 a 5.669291,5.669291 0 1 0 -11.33858,0 5.669291,5.669291 0 1 0 11.33858,0 z"
         style="fill:none;stroke:#000000"
         id="path90" />
      <path
         d="m 648.64252,316.74426 a 5.669291,5.669291 0 1 0 -11.33858,0 5.669291,5.669291 0 1 0 11.33858,0 z"
         style="fill:none;stroke:#000000"
         id="path92" />
      <path
         d="m 361.39843,120.20883 a 5.669295,5.669295 0 1 0 -11.33859,0 5.669295,5.669295 0 1 0 11.33859,0 z"
         style="fill:none;stroke:#000000"
         id="path94" />
      <path
         d="m 164.86299,407.45292 a 5.6692915,5.6692915 0 1 0 -11.33858,0 5.6692915,5.6692915 0 1 0 11.33858,0 z"
         style="fill:none;stroke:#000000"
         id="path96" />
      <path
         d="m 452.10709,603.98836 a 5.669295,5.669295 0 1 0 -11.33859,0 5.669295,5.669295 0 1 0 11.33859,0 z"
         style="fill:none;stroke:#000000"
         id="path98" />
      <path
         d="m 316.0441,603.98836 a 5.669295,5.669295 0 1 0 -11.33859,0 5.669295,5.669295 0 1 0 11.33859,0 z"
         style="fill:none;stroke:#000000"
         id="path100" />
      <path
         d="m 164.86299,271.38993 a 5.6692915,5.6692915 0 1 0 -11.33858,0 5.6692915,5.6692915 0 1 0 11.33858,0 z"
         style="fill:none;stroke:#000000"
         id="path102" />
      <path
         d="m 497.46142,120.20883 a 5.6692915,5.6692915 0 1 0 -11.33858,0 5.6692915,5.6692915 0 1 0 11.33858,0 z"
         style="fill:none;stroke:#000000"
         id="path104" />
      <path
         d="m 648.64252,407.45292 a 5.669291,5.669291 0 1 0 -11.33858,0 5.669291,5.669291 0 1 0 11.33858,0 z"
         style="fill:none;stroke:#000000"
         id="path106" />
      <path
         d="m 648.64252,271.38993 a 5.669291,5.669291 0 1 0 -11.33858,0 5.669291,5.669291 0 1 0 11.33858,0 z"
         style="fill:none;stroke:#000000"
         id="path108" />
      <path
         d="m 316.0441,120.20883 a 5.669295,5.669295 0 1 0 -11.33859,0 5.669295,5.669295 0 1 0 11.33859,0 z"
         style="fill:none;stroke:#000000"
         id="path110" />
      <path
         d="m 164.86299,452.80725 a 5.6692915,5.6692915 0 1 0 -11.33858,0 5.6692915,5.6692915 0 1 0 11.33858,0 z"
         style="fill:none;stroke:#000000"
         id="path112" />
      <path
         d="m 497.46142,603.98836 a 5.6692915,5.6692915 0 1 0 -11.33858,0 5.6692915,5.6692915 0 1 0 11.33858,0 z"
         style="fill:none;stroke:#000000"
         id="path114" />
      <path
         d="m 305.08346,197.68914 a 6.047244,6.047244 0 1 0 -12.09448,0 6.047244,6.047244 0 1 0 12.09448,0 z"
         style="fill:none;stroke:#000000"
         id="path116" />
      <path
         d="m 361.77638,197.68914 a 6.047245,6.047245 0 1 0 -12.09449,0 6.047245,6.047245 0 1 0 12.09449,0 z"
         style="fill:none;stroke:#000000"
         id="path118" />
      <path
         d="m 305.08346,526.50805 a 6.047244,6.047244 0 1 0 -12.09448,0 6.047244,6.047244 0 1 0 12.09448,0 z"
         style="fill:none;stroke:#000000"
         id="path120" />
      <path
         d="m 361.77638,526.50805 a 6.047245,6.047245 0 1 0 -12.09449,0 6.047245,6.047245 0 1 0 12.09449,0 z"
         style="fill:none;stroke:#000000"
         id="path122" />
      <path
         d="m 590.05985,398.10343 a 5.669295,5.669295 0 1 0 -11.33859,0 5.669295,5.669295 0 1 0 11.33859,0 z"
         style="fill:none;stroke:#000000"
         id="path124" />
      <path
         d="m 590.05985,326.09376 a 5.669295,5.669295 0 1 0 -11.33859,0 5.669295,5.669295 0 1 0 11.33859,0 z"
         style="fill:none;stroke:#000000"
         id="path126" />
      <path
         d="m 527.69764,362.09859 a 5.6692915,5.6692915 0 1 0 -11.33858,0 5.6692915,5.6692915 0 1 0 11.33858,0 z"
         style="fill:none;stroke:#000000"
         id="path128" />
      <path
         d="m 314.15433,494.38206 a 18.89764,18.89764 0 1 0 -37.79528,0 18.89764,18.89764 0 1 0 37.79528,0 z"
         style="fill:none;stroke:#000000"
         id="path130" />
      <path
         d="m 314.15433,229.81513 a 18.89764,18.89764 0 1 0 -37.79528,0 18.89764,18.89764 0 1 0 37.79528,0 z"
         style="fill:none;stroke:#000000"
         id="path132" />
      <path
         d="m 594.02835,514.88599 a 5.85827,5.85827 0 1 0 -11.71654,0 5.85827,5.85827 0 1 0 11.71654,0 z"
         style="fill:none;stroke:#000000"
         id="path134" />
      <path
         d="m 380.29606,275.03616 a 5.6692915,5.6692915 0 1 0 -11.33858,0 5.6692915,5.6692915 0 1 0 11.33858,0 z"
         style="fill:none;stroke:#000000"
         id="path136" />
      <path
         d="m 380.29606,448.89442 a 5.6692915,5.6692915 0 1 0 -11.33858,0 5.6692915,5.6692915 0 1 0 11.33858,0 z"
         style="fill:none;stroke:#000000"
         id="path138" />
      <path
         d="m 427.91811,423.42143 a 5.858268,5.858268 0 1 0 -11.71653,0 5.858268,5.858268 0 1 0 11.71653,0 z"
         style="fill:none;stroke:#000000"
         id="path140" />
      <path
         d="m 584.39055,275.03616 a 5.6692915,5.6692915 0 1 0 -11.33858,0 5.6692915,5.6692915 0 1 0 11.33858,0 z"
         style="fill:none;stroke:#000000"
         id="path142" />
      <path
         d="m 594.02835,230.66552 a 5.85827,5.85827 0 1 0 -11.71654,0 5.85827,5.85827 0 1 0 11.71654,0 z"
         style="fill:none;stroke:#000000"
         id="path144" />
      <path
         d="m 532.8,423.42143 a 5.858268,5.858268 0 1 0 -11.71653,0 5.858268,5.858268 0 1 0 11.71653,0 z"
         style="fill:none;stroke:#000000"
         id="path146" />
      <path
         d="m 408.64252,538.50804 a 5.858268,5.858268 0 1 0 -11.71653,0 5.858268,5.858268 0 1 0 11.71653,0 z"
         style="fill:none;stroke:#000000"
         id="path148" />
      <path
         d="m 380.29606,361.96529 a 5.6692915,5.6692915 0 1 0 -11.33858,0 5.6692915,5.6692915 0 1 0 11.33858,0 z"
         style="fill:none;stroke:#000000"
         id="path150" />
      <path
         d="m 408.64252,226.13009 a 5.858268,5.858268 0 1 0 -11.71653,0 5.858268,5.858268 0 1 0 11.71653,0 z"
         style="fill:none;stroke:#000000"
         id="path152" />
      <path
         d="m 584.39055,448.89442 a 5.6692915,5.6692915 0 1 0 -11.33858,0 5.6692915,5.6692915 0 1 0 11.33858,0 z"
         style="fill:none;stroke:#000000"
         id="path154" />
      <path
         d="m 406.75276,312.96473 a 5.669295,5.669295 0 1 0 -11.33859,0 5.669295,5.669295 0 1 0 11.33859,0 z"
         style="fill:none;stroke:#000000"
         id="path156" />
      <path
         d="m 406.75276,411.23245 a 5.669295,5.669295 0 1 0 -11.33859,0 5.669295,5.669295 0 1 0 11.33859,0 z"
         style="fill:none;stroke:#000000"
         id="path158" />
    </g>
  </g>
  <desc
     id="desc162">plate.dxf - scale = 1.000000, origin = (0.000000, 0.000000), method = manual</desc>
</svg>
