0
SECTION
2
HEADER
9
$INSUNITS
70
4
9
$ACADVER
1
AC1014
9
$HANDSEED
5
FFFF
0
ENDSEC
0
SECTION
2
TABLES
0
TABLE
2
VPORT
5
8
100
AcDbSymbolTable
0
ENDTAB
0
TABLE
2
LTYPE
5
5
100
AcDbSymbolTable
0
LTYPE
5
14
100
AcDbSymbolTableRecord
100
AcDbLinetypeTableRecord
2
BYBLOCK
70
0
0
LTYPE
5
15
100
AcDbSymbolTableRecord
100
AcDbLinetypeTableRecord
2
BYLAYER
70
0
0
ENDTAB
0
TABLE
2
LAYER
5
2
100
AcDbSymbolTable
70
2
0
LAYER
5
50
100
AcDbSymbolTableRecord
100
AcDbLayerTableRecord
2
0
70
0
6
CONTINUOUS
0
ENDTAB
0
TABLE
2
STYLE
5
3
100
AcDbSymbolTable
70
1
0
STYLE
5
11
100
AcDbSymbolTableRecord
100
AcDbTextStyleTableRecord
2
STANDARD
70
0
0
ENDTAB
0
TABLE
2
VIEW
5
6
100
AcDbSymbolTable
70
0
0
ENDTAB
0
TABLE
2
UCS
5
7
100
AcDbSymbolTable
70
0
0
ENDTAB
0
TABLE
2
APPID
5
9
100
AcDbSymbolTable
70
2
0
APPID
5
12
100
AcDbSymbolTableRecord
100
AcDbRegAppTableRecord
2
ACAD
70
0
0
ENDTAB
0
TABLE
2
DIMSTYLE
5
A
100
AcDbSymbolTable
70
1
0
ENDTAB
0
TABLE
2
BLOCK_RECORD
5
1
100
AcDbSymbolTable
70
1
0
BLOCK_RECORD
5
1F
100
AcDbSymbolTableRecord
100
AcDbBlockTableRecord
2
*MODEL_SPACE
0
BLOCK_RECORD
5
1B
100
AcDbSymbolTableRecord
100
AcDbBlockTableRecord
2
*PAPER_SPACE
0
ENDTAB
0
ENDSEC
0
SECTION
2
BLOCKS
0
BLOCK
5
20
100
AcDbEntity
100
AcDbBlockBegin
2
*MODEL_SPACE
0
ENDBLK
5
21
100
AcDbEntity
100
AcDbBlockEnd
0
BLOCK
5
1C
100
AcDbEntity
100
AcDbBlockBegin
2
*PAPER_SPACE
0
ENDBLK
5
1D
100
AcDbEntity
100
AcDbBlockEnd
0
ENDSEC
0
SECTION
2
ENTITIES
0
LWPOLYLINE
5
100
100
AcDbEntity
8
0
100
AcDbPolyline
90
6
70
1
43
0.0
10
47.430530786514367
20
-1.6528114413184554
42
-0.78492882477509573
10
47.430530786514282
20
-18.010315027340567
10
47.430530786514197
20
-24.831563234329504
42
-0.99999999999999989
10
37.43053078651419
20
-24.83156323432944
10
37.430530786514367
20
5.1684367656705561
42
-0.99999999999999989
10
47.430530786514367
20
5.1684367656704993
0
LWPOLYLINE
5
101
100
AcDbEntity
8
0
100
AcDbPolyline
90
2
70
1
43
0.0
10
-29.319469839334509
20
-12.319031680328504
42
-9.9498749701154896
10
-29.319469839334484
20
-7.344094788329544
42
-1.1055415901290302
0
LWPOLYLINE
5
102
100
AcDbEntity
8
0
100
AcDbPolyline
90
4
70
1
43
0.0
10
-10.898463096747491
20
-18.831563442945395
42
-0.99999999999999989
10
-20.898463096747498
20
-18.831563442945338
10
-20.898463096747385
20
-0.83156302571282259
42
-0.99999999999999989
10
-10.898463096747385
20
-0.83156302571288476
0
LWPOLYLINE
5
103
100
AcDbEntity
8
0
100
AcDbPolyline
90
4
70
1
43
0.0
10
-2.5694692879916259
20
-26.331563480198355
42
-0.99999999999999989
10
-7.5694693624974319
20
-26.331563480198319
10
-7.5694693624973759
20
-17.331563346087869
42
-0.99999999999999989
10
-2.5694692879915704
20
-17.331563346087901
0
LWPOLYLINE
5
104
100
AcDbEntity
8
0
100
AcDbPolyline
90
112
70
1
43
0.0
10
66.430530786514026
20
-50.927196838377967
42
-0.3765622177572861
10
63.820141176124395
20
-53.901789876813233
42
0.3398232709503653
10
46.50075742899751
20
-71.221173623939904
42
-0.3765622177572861
10
43.526164390562208
20
-73.831563234329479
10
31.230530786513878
20
-73.831563234329408
10
31.23053078651386
20
-76.831563234329408
10
28.180530786513845
20
-78.831563234329394
10
24.680530786513842
20
-78.83156323432938
10
21.630530786513855
20
-76.831563234329323
10
21.630530786513877
20
-73.831563234329337
10
19.230530786513874
20
-73.831563234329323
10
19.230530786513857
20
-76.831563234329309
10
16.180530786513849
20
-78.831563234329309
10
12.680530786513842
20
-78.83156323432928
10
9.6305307865138552
20
-76.831563234329252
10
9.6305307865138747
20
-73.831563234329266
10
-4.7694692134861292
20
-73.831563234329167
10
-4.7694692134861487
20
-76.831563234329167
10
-7.8194692134861565
20
-78.831563234329153
10
-11.319469213486162
20
-78.831563234329124
10
-14.369469213486157
20
-76.831563234329096
10
-14.369469213486138
20
-73.83156323432911
10
-16.769469213486122
20
-73.83156323432911
10
-16.769469213486158
20
-76.831563234329096
10
-19.819469213486165
20
-78.831563234329053
10
-23.319469213486165
20
-78.831563234329039
10
-26.369469213486148
20
-76.831563234329025
10
-26.369469213486131
20
-73.831563234329025
10
-38.665102817534475
20
-73.831563234328968
42
-0.3765622177572861
10
-41.639695855969734
20
-71.221173623939336
42
0.33982327095036508
10
-58.95907960309637
20
-53.901789876812444
42
-0.37656221775728688
10
-61.569469213485974
20
-50.927196838377142
10
-61.56946921348591
20
-38.63156323432883
10
-64.569469213485874
20
-38.631563234328809
10
-66.569469213485888
20
-35.581563234328783
10
-66.569469213485874
20
-32.081563234328804
10
-64.569469213485817
20
-29.031563234328797
10
-61.569469213485846
20
-29.031563234328818
10
-61.569469213485839
20
-26.631563234328816
10
-64.569469213485803
20
-26.631563234328794
10
-66.569469213485817
20
-23.58156323432879
10
-66.569469213485789
20
-20.08156323432879
10
-64.569469213485746
20
-17.031563234328807
10
-61.569469213485775
20
-17.031563234328825
10
-61.569469213485689
20
-2.6315632343288211
10
-64.569469213485661
20
-2.631563234328802
10
-66.569469213485661
20
0.41843676567121513
10
-66.569469213485647
20
3.9184367656712116
10
-64.56946921348559
20
6.9684367656711981
10
-61.569469213485625
20
6.9684367656711776
10
-61.569469213485618
20
9.3684367656711807
10
-64.56946921348559
20
9.3684367656712002
10
-66.56946921348559
20
12.418436765671217
10
-66.569469213485576
20
15.918436765671213
10
-64.569469213485519
20
18.968436765671196
10
-61.569469213485554
20
18.968436765671179
10
-61.569469213485455
20
31.264070369719519
42
-0.37656221775728688
10
-58.959079603095823
20
34.238663408154785
42
0.33982327095036513
10
-41.639695855968945
20
51.558047155281443
42
-0.3765622177572861
10
-38.665102817533651
20
54.168436765671039
10
-26.369469213485303
20
54.168436765670961
10
-26.369469213485285
20
57.168436765670947
10
-23.319469213485277
20
59.16843676567094
10
-19.819469213485277
20
59.168436765670918
10
-16.769469213485294
20
57.168436765670883
10
-16.769469213485312
20
54.168436765670876
10
-14.36946921348531
20
54.168436765670869
10
-14.36946921348529
20
57.168436765670876
10
-11.319469213485283
20
59.168436765670847
10
-7.8194692134852772
20
59.168436765670826
10
-4.7694692134852819
20
57.168436765670812
10
-4.7694692134853014
20
54.168436765670805
10
9.6305307865146936
20
54.16843676567072
10
9.6305307865147132
20
57.168436765670727
10
12.680530786514721
20
59.168436765670698
10
16.180530786514726
20
59.168436765670677
10
19.230530786514713
20
57.168436765670663
10
19.230530786514691
20
54.168436765670656
10
21.630530786514694
20
54.168436765670648
10
21.630530786514718
20
57.168436765670656
10
24.68053078651473
20
59.16843676567062
10
28.180530786514723
20
59.168436765670606
10
31.230530786514713
20
57.168436765670592
10
31.230530786514695
20
54.168436765670585
10
43.526164390563039
20
54.168436765670521
42
-0.37656221775728688
10
46.500757428998298
20
51.558047155280889
42
0.33982327095036519
10
63.820141176124949
20
34.23866340815399
42
-0.37656221775728688
10
66.430530786514538
20
31.264070369718688
10
66.430530786514453
20
18.96843676567039
10
69.430530786514453
20
18.968436765670372
10
71.430530786514424
20
15.918436765670352
10
71.43053078651441
20
12.418436765670355
10
69.430530786514396
20
9.3684367656703689
10
66.430530786514382
20
9.3684367656703884
10
66.430530786514367
20
6.9684367656703872
10
69.430530786514382
20
6.9684367656703667
10
71.430530786514353
20
3.91843676567035
10
71.430530786514325
20
0.41843676567035359
10
69.430530786514325
20
-2.6315632343296413
10
66.430530786514311
20
-2.6315632343296214
10
66.430530786514225
20
-17.031563234329617
10
69.430530786514225
20
-17.031563234329635
10
71.430530786514211
20
-20.081563234329654
10
71.430530786514183
20
-23.58156323432965
10
69.430530786514169
20
-26.631563234329647
10
66.430530786514169
20
-26.631563234329626
10
66.430530786514154
20
-29.031563234329628
10
69.430530786514154
20
-29.031563234329649
10
71.430530786514126
20
-32.081563234329657
10
71.430530786514112
20
-35.58156323432965
10
69.430530786514097
20
-38.631563234329633
10
66.430530786514083
20
-38.631563234329619
0
CIRCLE
5
105
100
AcDbEntity
8
0
100
AcDbCircle
10
-39.369469213485324
20
42.168436765670918
30
-1.7763568394002505e-14
40
1.4999999999999991
210
-2.7755575615629081e-16
220
-9.4909827659402545e-31
230
1
0
CIRCLE
5
106
100
AcDbEntity
8
0
100
AcDbCircle
10
-9.5694692134859736
20
-61.831563234329238
30
0
40
1.5000000000000013
210
-2.7755575615629081e-16
220
-9.4909827659402545e-31
230
1
0
CIRCLE
5
107
100
AcDbEntity
8
0
100
AcDbCircle
10
-39.369469213485964
20
-61.831563234328854
30
0
40
1.4999999999999991
210
-2.7755575615629081e-16
220
-9.4909827659402545e-31
230
1
0
CIRCLE
5
108
100
AcDbEntity
8
0
100
AcDbCircle
10
-9.5694692134853199
20
48.168436765670926
30
0
40
1.5000000000000013
210
-2.7755575615629081e-16
220
-9.4909827659402545e-31
230
1
0
CIRCLE
5
109
100
AcDbEntity
8
0
100
AcDbCircle
10
-39.369469213485324
20
48.168436765670933
30
-1.7763568394002505e-14
40
1.4999999999999991
210
-2.7755575615629081e-16
220
-9.4909827659402545e-31
230
1
0
CIRCLE
5
110
100
AcDbEntity
8
0
100
AcDbCircle
10
-9.5694692134860464
20
-67.831563234329224
30
0
40
1.5000000000000013
210
-2.7755575615629081e-16
220
-9.4909827659402545e-31
230
1
0
CIRCLE
5
111
100
AcDbEntity
8
0
100
AcDbCircle
10
-39.369469213486042
20
-67.831563234328854
30
0
40
1.4999999999999991
210
-2.7755575615629081e-16
220
-9.4909827659402545e-31
230
1
0
CIRCLE
5
112
100
AcDbEntity
8
0
100
AcDbCircle
10
-9.5694692134853199
20
42.168436765670911
30
0
40
1.5000000000000013
210
-2.7755575615629081e-16
220
-9.4909827659402545e-31
230
1
0
CIRCLE
5
113
100
AcDbEntity
8
0
100
AcDbCircle
10
-32.56946921348559
20
15.168436765671004
30
0
40
1.25
210
-1.7749370367472825e-30
220
-9.4909827659402685e-31
230
1
0
CIRCLE
5
114
100
AcDbEntity
8
0
100
AcDbCircle
10
24.430530786514492
20
21.168436765670656
30
0
40
1.25
210
-1.7749370367472825e-30
220
-9.4909827659402685e-31
230
1
0
CIRCLE
5
115
100
AcDbEntity
8
0
100
AcDbCircle
10
-32.569469213485903
20
-34.831563234329032
30
0
40
1.25
210
-1.7749370367472825e-30
220
-9.4909827659402685e-31
230
1
0
CIRCLE
5
116
100
AcDbEntity
8
0
100
AcDbCircle
10
24.430530786514115
20
-40.831563234329394
30
0
40
1.25
210
-1.7749370367472825e-30
220
-9.4909827659402685e-31
230
1
0
CIRCLE
5
117
100
AcDbEntity
8
0
100
AcDbCircle
10
-33.569469213485846
20
-27.831563234329021
30
0
40
1.7500000000000027
210
-1.7256332301709672e-30
220
-9.4909827659402685e-31
230
1
0
CIRCLE
5
118
100
AcDbEntity
8
0
100
AcDbCircle
10
-33.569469213485618
20
8.1684367656710108
30
0
40
1.7500000000000027
210
-1.7256332301709672e-30
220
-9.4909827659402685e-31
230
1
0
CIRCLE
5
119
100
AcDbEntity
8
0
100
AcDbCircle
10
35.130530786513944
20
-63.856563234329428
30
0
40
1.500000000000008
210
-4.9303806576313825e-31
220
-9.4909827659402685e-31
230
1
0
CIRCLE
5
120
100
AcDbEntity
8
0
100
AcDbCircle
10
11.230530786514223
20
-17.806563234329275
30
0
40
1.500000000000008
210
-4.9303806576313825e-31
220
-9.4909827659402685e-31
230
1
0
CIRCLE
5
121
100
AcDbEntity
8
0
100
AcDbCircle
10
11.230530786513938
20
-63.856563234329272
30
0
40
1.500000000000008
210
-4.9303806576313825e-31
220
-9.4909827659402685e-31
230
1
0
CIRCLE
5
122
100
AcDbEntity
8
0
100
AcDbCircle
10
35.130530786514228
20
-17.806563234329424
30
0
40
1.500000000000008
210
-4.9303806576313825e-31
220
-9.4909827659402685e-31
230
1
0
CIRCLE
5
123
100
AcDbEntity
8
0
100
AcDbCircle
10
-13.898463096747589
20
-28.255767472973822
30
0
40
1.4999999999999991
210
-4.9303806576313825e-31
220
-9.4909827659402685e-31
230
1
0
CIRCLE
5
124
100
AcDbEntity
8
0
100
AcDbCircle
10
-50.898463096747236
20
8.7442325270263392
30
0
40
1.5000000000000036
210
-4.9303806576313825e-31
220
-9.4909827659402685e-31
230
1
0
CIRCLE
5
125
100
AcDbEntity
8
0
100
AcDbCircle
10
-50.898463096747506
20
-28.255767472973563
30
0
40
1.5000000000000036
210
-4.9303806576313825e-31
220
-9.4909827659402685e-31
230
1
0
CIRCLE
5
126
100
AcDbEntity
8
0
100
AcDbCircle
10
-13.898463096747324
20
8.7442325270260817
30
0
40
1.5000000000000013
210
-4.9303806576313825e-31
220
-9.4909827659402685e-31
230
1
0
CIRCLE
5
127
100
AcDbEntity
8
0
100
AcDbCircle
10
2.930530786514371
20
7.6684367656707781
30
0
40
1.5000000000000002
210
-4.9303806576313825e-31
220
-9.4909827659402685e-31
230
1
0
CIRCLE
5
128
100
AcDbEntity
8
0
100
AcDbCircle
10
51.930530786514375
20
7.6684367656704699
30
0
40
1.5000000000000036
210
-4.9303806576313825e-31
220
-9.4909827659402685e-31
230
1
0
CIRCLE
5
129
100
AcDbEntity
8
0
100
AcDbCircle
10
2.9305307865140073
20
-50.331563234329224
30
0
40
1.5000000000000013
210
-4.9303806576313825e-31
220
-9.4909827659402685e-31
230
1
0
CIRCLE
5
130
100
AcDbEntity
8
0
100
AcDbCircle
10
-9.5694692134861281
20
-73.831563234329153
30
0
40
1.5000000000000013
210
-4.9303806576313825e-31
220
-9.4909827659402685e-31
230
1
0
CIRCLE
5
131
100
AcDbEntity
8
0
100
AcDbCircle
10
-61.56946921348564
20
2.1684367656711823
30
0
40
1.4999999999999947
210
-4.9303806576313825e-31
220
-9.4909827659402685e-31
230
1
0
CIRCLE
5
132
100
AcDbEntity
8
0
100
AcDbCircle
10
14.430530786514693
20
54.168436765670698
30
0
40
1.4999999999999991
210
-4.9303806576313825e-31
220
-9.4909827659402685e-31
230
1
0
CIRCLE
5
133
100
AcDbEntity
8
0
100
AcDbCircle
10
66.430530786514126
20
-33.831563234329622
30
0
40
1.5000000000000036
210
-4.9303806576313825e-31
220
-9.4909827659402685e-31
230
1
0
CIRCLE
5
134
100
AcDbEntity
8
0
100
AcDbCircle
10
66.430530786514353
20
2.1684367656703829
30
0
40
1.5000000000000036
210
-4.9303806576313825e-31
220
-9.4909827659402685e-31
230
1
0
CIRCLE
5
135
100
AcDbEntity
8
0
100
AcDbCircle
10
-9.569469213485311
20
54.16843676567084
30
0
40
1.5000000000000036
210
-4.9303806576313825e-31
220
-9.4909827659402685e-31
230
1
0
CIRCLE
5
136
100
AcDbEntity
8
0
100
AcDbCircle
10
-61.569469213485782
20
-21.831563234328822
30
0
40
1.5000000000000036
210
-4.9303806576313825e-31
220
-9.4909827659402685e-31
230
1
0
CIRCLE
5
137
100
AcDbEntity
8
0
100
AcDbCircle
10
14.430530786513875
20
-73.831563234329295
30
0
40
1.4999999999999969
210
-4.9303806576313825e-31
220
-9.4909827659402685e-31
230
1
0
CIRCLE
5
138
100
AcDbEntity
8
0
100
AcDbCircle
10
-21.56946921348613
20
-73.831563234329053
30
0
40
1.5000000000000036
210
-4.9303806576313825e-31
220
-9.4909827659402685e-31
230
1
0
CIRCLE
5
139
100
AcDbEntity
8
0
100
AcDbCircle
10
-61.569469213485561
20
14.168436765671185
30
0
40
1.4999999999999947
210
-4.9303806576313825e-31
220
-9.4909827659402685e-31
230
1
0
CIRCLE
5
140
100
AcDbEntity
8
0
100
AcDbCircle
10
26.430530786514694
20
54.168436765670613
30
0
40
1.4999999999999991
210
-4.9303806576313825e-31
220
-9.4909827659402685e-31
230
1
0
CIRCLE
5
141
100
AcDbEntity
8
0
100
AcDbCircle
10
66.430530786514211
20
-21.831563234329622
30
0
40
1.4999999999999947
210
-4.9303806576313825e-31
220
-9.4909827659402685e-31
230
1
0
CIRCLE
5
142
100
AcDbEntity
8
0
100
AcDbCircle
10
66.430530786514424
20
14.168436765670386
30
0
40
1.5000000000000036
210
-4.9303806576313825e-31
220
-9.4909827659402685e-31
230
1
0
CIRCLE
5
143
100
AcDbEntity
8
0
100
AcDbCircle
10
-21.569469213485313
20
54.168436765670933
30
0
40
1.4999999999999991
210
-4.9303806576313825e-31
220
-9.4909827659402685e-31
230
1
0
CIRCLE
5
144
100
AcDbEntity
8
0
100
AcDbCircle
10
-61.56946921348586
20
-33.831563234328826
30
0
40
1.5000000000000036
210
-4.9303806576313825e-31
220
-9.4909827659402685e-31
230
1
0
CIRCLE
5
145
100
AcDbEntity
8
0
100
AcDbCircle
10
26.430530786513877
20
-73.83156323432938
30
0
40
1.5000000000000036
210
-4.9303806576313825e-31
220
-9.4909827659402685e-31
230
1
0
CIRCLE
5
146
100
AcDbEntity
8
0
100
AcDbCircle
10
-24.569469690322606
20
33.668437793851062
30
0
40
1.6000000000000014
210
-4.9303806576313825e-31
220
-9.4909827659402685e-31
230
1
0
CIRCLE
5
147
100
AcDbEntity
8
0
100
AcDbCircle
10
-9.5694696903226077
20
33.668437793850963
30
0
40
1.6000000000000014
210
-4.9303806576313825e-31
220
-9.4909827659402685e-31
230
1
0
CIRCLE
5
148
100
AcDbEntity
8
0
100
AcDbCircle
10
-24.569469690323146
20
-53.331564262509168
30
0
40
1.6000000000000014
210
-4.9303806576313825e-31
220
-9.4909827659402685e-31
230
1
0
CIRCLE
5
149
100
AcDbEntity
8
0
100
AcDbCircle
10
-9.5694696903231442
20
-53.331564262509268
30
0
40
1.6000000000000014
210
-4.9303806576313825e-31
220
-9.4909827659402685e-31
230
1
0
CIRCLE
5
150
100
AcDbEntity
8
0
100
AcDbCircle
10
50.930531464517053
20
-19.357842817910971
30
-1.7763568394002505e-14
40
1.4999999999999947
210
-4.9303806576313825e-31
220
-9.4909827659402685e-31
230
1
0
CIRCLE
5
151
100
AcDbEntity
8
0
100
AcDbCircle
10
50.930531464517173
20
-0.30528365074807051
30
-1.7763568394002505e-14
40
1.4999999999999947
210
-4.9303806576313825e-31
220
-9.4909827659402685e-31
230
1
0
CIRCLE
5
152
100
AcDbEntity
8
0
100
AcDbCircle
10
34.430531218647957
20
-9.8315632343294208
30
-1.7763568394002505e-14
40
1.4999999999999991
210
-4.9303806576313825e-31
220
-9.4909827659402685e-31
230
1
0
CIRCLE
5
153
100
AcDbEntity
8
0
100
AcDbCircle
10
-25.569469630718448
20
-44.831563234329046
30
0
40
5
210
-4.9303806576313825e-31
220
-9.4909827659402685e-31
230
1
0
CIRCLE
5
154
100
AcDbEntity
8
0
100
AcDbCircle
10
-25.569469630718014
20
25.168437287211592
30
0
40
5.000000074505806
210
-4.9303806576313825e-31
220
-9.4909827659402685e-31
230
1
0
CIRCLE
5
155
100
AcDbEntity
8
0
100
AcDbCircle
10
51.930530786514041
20
-50.256563234329519
30
0
40
1.5500000000000025
210
-4.9303806576313825e-31
220
-9.4909827659402685e-31
230
1
0
CIRCLE
5
156
100
AcDbEntity
8
0
100
AcDbCircle
10
-4.569469213485573
20
13.203706202546854
30
0
40
1.5000000000000024
210
-4.9303806576313825e-31
220
-9.4909827659402685e-31
230
1
0
CIRCLE
5
157
100
AcDbEntity
8
0
100
AcDbCircle
10
-4.5694692134858572
20
-32.796293797453188
30
0
40
1.5000000000000024
210
-4.9303806576313825e-31
220
-9.4909827659402685e-31
230
1
0
CIRCLE
5
158
100
AcDbEntity
8
0
100
AcDbCircle
10
7.9805307865141888
20
-26.056563234329253
30
0
40
1.5499999999999992
210
-4.9303806576313825e-31
220
-9.4909827659402685e-31
230
1
0
CIRCLE
5
159
100
AcDbEntity
8
0
100
AcDbCircle
10
49.430530786514439
20
13.203706202546517
30
0
40
1.5000000000000036
210
-4.9303806576313825e-31
220
-9.4909827659402685e-31
230
1
0
CIRCLE
5
160
100
AcDbEntity
8
0
100
AcDbCircle
10
51.930530786514488
20
24.943436765670477
30
0
40
1.5500000000000025
210
-4.9303806576313825e-31
220
-9.4909827659402685e-31
230
1
0
CIRCLE
5
161
100
AcDbEntity
8
0
100
AcDbCircle
10
35.730530786514194
20
-26.056563234329424
30
0
40
1.549999999999998
210
-4.9303806576313825e-31
220
-9.4909827659402685e-31
230
1
0
CIRCLE
5
162
100
AcDbEntity
8
0
100
AcDbCircle
10
2.8805307865140017
20
-56.506563234329235
30
0
40
1.5499999999999994
210
-4.9303806576313825e-31
220
-9.4909827659402685e-31
230
1
0
CIRCLE
5
163
100
AcDbEntity
8
0
100
AcDbCircle
10
-4.5694692134857151
20
-9.796293797453167
30
0
40
1.5000000000000024
210
-4.9303806576313825e-31
220
-9.4909827659402685e-31
230
1
0
CIRCLE
5
164
100
AcDbEntity
8
0
100
AcDbCircle
10
2.880530786514504
20
26.143436765670778
30
0
40
1.5499999999999994
210
-4.9303806576313825e-31
220
-9.4909827659402685e-31
230
1
0
CIRCLE
5
165
100
AcDbEntity
8
0
100
AcDbCircle
10
49.430530786514154
20
-32.796293797453529
30
0
40
1.5000000000000036
210
-4.9303806576313825e-31
220
-9.4909827659402685e-31
230
1
0
CIRCLE
5
166
100
AcDbEntity
8
0
100
AcDbCircle
10
2.4305307865143626
20
3.1684368513524541
30
0
40
1.499999914318324
210
-4.9303806576313825e-31
220
-9.4909827659402685e-31
230
1
0
CIRCLE
5
167
100
AcDbEntity
8
0
100
AcDbCircle
10
2.4305307865142018
20
-22.8315633200109
30
0
40
1.499999914318324
210
-4.9303806576313825e-31
220
-9.4909827659402685e-31
230
1
0
ENDSEC
0
SECTION
2
OBJECTS
0
DICTIONARY
5
C
100
AcDbDictionary
3
ACAD_GROUP
350
D
3
ACAD_MLINESTYLE
350
17
0
DICTIONARY
5
D
100
AcDbDictionary
0
DICTIONARY
5
1A
330
C
100
AcDbDictionary
0
DICTIONARY
5
17
100
AcDbDictionary
0
ENDSEC
0
EOF
